<?xml version="1.0" encoding="UTF-8"?>
<svg width="40px" height="40px" viewBox="0 0 40 40" version="1.1" xmlns="http://www.w3.org/2000/svg" xmlns:xlink="http://www.w3.org/1999/xlink">
    <!-- Generator: Sketch 50.2 (55047) - http://www.bohemiancoding.com/sketch -->
    <title>Icon</title>
    <desc>Created with Sketch.</desc>
    <defs>
        <polygon id="path-1" points="7.87401575e-06 0.0229413089 39.9769763 0.0229413089 39.9769763 39.6039604 7.87401575e-06 39.6039604"></polygon>
    </defs>
    <g id="Revision" stroke="none" stroke-width="1" fill="none" fill-rule="evenodd">
        <g id="CompareDropdown_NoResult" transform="translate(-615.000000, -456.000000)">
            <g id="Icon" transform="translate(615.000000, 456.000000)">
                <path d="M24.0001819,15 C22.8972447,15 22,15.897254 22,17 C22,18.1028369 22.8972447,19 24.0001819,19 C25.1029372,19 26,18.1028369 26,17 C26,15.897254 25.1029372,15 24.0001819,15" id="Fill-1" fill="#999999"></path>
                <path d="M16.9998181,15 C15.8971538,15 15,15.897254 15,17 C15,18.1028369 15.8971538,19 16.9998181,19 C18.1027553,19 19,18.1028369 19,17 C19,15.897254 18.1027553,15 16.9998181,15" id="Fill-3" fill="#999999"></path>
                <path d="M30,15 C28.8971631,15 28,15.897254 28,17 C28,18.1028369 28.8971631,19 30,19 C31.1028369,19 32,18.1028369 32,17 C32,15.897254 31.1028369,15 30,15" id="Fill-5" fill="#999999"></path>
                <g id="Group-9">
                    <mask id="mask-2" fill="white">
                        <use xlink:href="#path-1"></use>
                    </mask>
                    <g id="Clip-8"></g>
                    <path d="M23.2886693,29.6396273 C15.9965433,29.6396273 10.0640236,23.7657675 10.0640236,16.5459188 C10.0640236,9.32599205 15.9965433,3.45221018 23.2886693,3.45221018 C30.5807165,3.45221018 36.513315,9.32599205 36.513315,16.5459188 C36.513315,23.7657675 30.5807165,29.6396273 23.2886693,29.6396273 M35.0824488,4.86664848 C31.8649685,1.68164809 27.593,-0.0351212287 23.0526063,0.024440633 C13.8809528,0.150736727 6.5010315,7.64453886 6.60134646,16.7293599 C6.64237008,20.4414516 7.96630709,24.0648242 10.3322913,26.9489748 L0.506464567,36.6775162 C-0.168811024,37.3461838 -0.168811024,38.4339674 0.506464567,39.1025571 C0.844102362,39.436852 1.28756693,39.6039994 1.73111024,39.6039994 C2.1745748,39.6039994 2.61811811,39.436852 2.95567717,39.1025571 L12.7815039,29.3737819 C15.695126,31.7168083 19.3552047,33.027637 23.1046535,33.0680206 C23.1662283,33.0686443 23.2268583,33.0689561 23.2882756,33.0689561 C32.3818189,33.0684104 39.8505591,25.7973415 39.9753622,16.7764481 C40.0375669,12.2813207 38.2999291,8.05164887 35.0824488,4.86664848" id="Fill-7" fill="#999999" mask="url(#mask-2)"></path>
                </g>
            </g>
        </g>
    </g>
</svg>