<svg xmlns="http://www.w3.org/2000/svg" xmlns:xlink="http://www.w3.org/1999/xlink" width="510" height="567" viewBox="0 0 510 567">
    <defs>
        <path id="a" d="M0 .9h418v524H0z"/>
    </defs>
    <g fill="none" fill-rule="evenodd">
        <g transform="translate(0 .1)">
            <mask id="b" fill="#fff">
                <use xlink:href="#a"/>
            </mask>
            <path fill="#555" d="M315 133c-12.7 0-23-10.3-23-22.9V67.2l62.6 65.8H315zm0 37.7h65.2v280.7c0 19.4-16.5 35.8-36 35.8H73.7c-19.5 0-36-16.4-36-35.8v-377c0-19.4 16.5-35.8 36-35.8h180.6v71.5c.1 33.4 27.3 60.6 60.7 60.6zm97.7-31.6L286.7 6.9c-3.6-3.8-8.6-6-13.6-6H73.7c-19.5 0-38 7.7-52 21.6C7.7 36.5 0 54.9 0 74.4v377c0 19.5 7.7 38 21.7 51.9 14 13.9 32.4 21.6 52 21.6h270.6c19.5 0 38-7.7 52-21.6 14-14 21.7-32.4 21.7-51.9V152.1c-.1-4.6-1.9-9.2-5.3-13z" mask="url(#b)"/>
        </g>
        <path fill="#555" d="M88.6 400c0 10.4 8.5 18.8 18.8 18.8h203.3c10.4 0 18.8-8.5 18.8-18.8s-8.5-18.8-19-18.8H107.4c-10.4 0-18.8 8.4-18.8 18.8M208.9 157c-5.2 0-10.1 2.1-13.8 6l-72.3 77.6c-3.4 3.6-5.3 8.4-5.1 13.4.2 5 2.3 9.8 6.1 13.3 7.8 7 19.5 6.6 26.7-1l39.6-42.6V342c0 10.4 8.5 18.8 18.8 18.8 10.4 0 18.8-8.5 18.8-18.8V223.7l39.6 42.6c3.7 3.8 8.5 6 13.7 6 4.7 0 9.4-1.9 12.9-5.1 3.6-3.5 5.7-8.1 5.9-13.1.2-5.1-1.6-9.9-5-13.5l-72.4-77.7c-3.4-3.8-8.3-5.9-13.5-5.9"/>
        <path fill="#337AB7" d="M495 401.5c-9.8-16.8-23.1-30.1-39.9-39.9-16.8-9.8-35.1-14.7-55-14.7s-38.2 4.9-55 14.7c-16.8 9.8-30.1 23.1-39.9 39.9-9.8 16.8-14.7 35.1-14.7 55s4.9 38.2 14.7 55c9.8 16.8 23.1 30.1 39.9 39.9 16.8 9.8 35.1 14.7 55 14.7s38.2-4.9 55-14.7c16.8-9.8 30.1-23.1 39.9-39.9 9.8-16.8 14.7-35.1 14.7-55s-4.9-38.2-14.7-55"/>
        <path fill="#FFF" d="M465.749 432.796l-62.771 62.77-11.792 11.793c-1.56 1.56-3.728 2.427-5.895 2.427-2.168 0-4.335-.867-5.896-2.427l-11.792-11.792-31.385-31.385c-1.561-1.561-2.427-3.728-2.427-5.896 0-2.168.866-4.335 2.427-5.895L348.01 440.6c1.56-1.561 3.727-2.428 5.895-2.428 2.167 0 4.335.867 5.896 2.428l25.49 25.576 56.875-56.962c1.56-1.561 3.729-2.428 5.896-2.428s4.334.867 5.895 2.428l11.792 11.79c1.56 1.562 2.427 3.729 2.427 5.896 0 2.168-.866 4.335-2.427 5.896"/>
    </g>
</svg>
