<svg xmlns="http://www.w3.org/2000/svg" xmlns:xlink="http://www.w3.org/1999/xlink" width="510" height="567" viewBox="0 0 510 567">
    <defs>
        <path id="a" d="M0 .9h418v524H0z"/>
    </defs>
    <g fill="none" fill-rule="evenodd">
        <path fill="#FFF" d="M486.618 454.358c0 45.882-37.194 83.076-83.076 83.076-45.882 0-83.076-37.194-83.076-83.076 0-45.882 37.194-83.076 83.076-83.076 45.882 0 83.076 37.194 83.076 83.076"/>
        <g transform="translate(0 1)">
            <mask id="b" fill="#fff">
                <use xlink:href="#a"/>
            </mask>
            <path fill="#555" d="M315 133c-12.7 0-23-10.3-23-22.9V67.2l62.6 65.8H315zm0 37.7h65.2v280.7c0 19.4-16.5 35.8-36 35.8H73.7c-19.5 0-36-16.4-36-35.8v-377c0-19.4 16.5-35.8 36-35.8h180.6v71.5c.1 33.4 27.3 60.6 60.7 60.6zm97.7-31.6L286.7 6.9c-3.6-3.8-8.6-6-13.6-6H73.7c-19.5 0-38 7.7-52 21.6C7.7 36.5 0 54.9 0 74.4v377c0 19.5 7.7 38 21.7 51.9 14 13.9 32.4 21.6 52 21.6h270.6c19.5 0 38-7.7 52-21.6 14-14 21.7-32.4 21.7-51.9V152.1c-.1-4.6-1.9-9.2-5.3-13z" mask="url(#b)"/>
        </g>
        <path fill="#555" d="M88.6 400.9c0 10.4 8.5 18.8 18.8 18.8h203.3c10.4 0 18.8-8.5 18.8-18.8s-8.5-18.8-19-18.8H107.4c-10.4 0-18.8 8.4-18.8 18.8M208.9 157.9c-5.2 0-10.1 2.1-13.8 6l-72.3 77.6c-3.4 3.6-5.3 8.4-5.1 13.4.2 5 2.3 9.8 6.1 13.3 7.8 7 19.5 6.6 26.7-1l39.6-42.6v118.3c0 10.4 8.5 18.8 18.8 18.8 10.4 0 18.8-8.5 18.8-18.8V224.6l39.6 42.6c3.7 3.8 8.5 6 13.7 6 4.7 0 9.4-1.9 12.9-5.1 3.6-3.5 5.7-8.1 5.9-13.1.2-5.1-1.6-9.9-5-13.5l-72.4-77.7c-3.4-3.8-8.3-5.9-13.5-5.9"/>
        <path fill="#FFF" d="M403.6 372.2c45.895 0 83.1 37.205 83.1 83.1 0 45.895-37.205 83.1-83.1 83.1-45.896 0-83.1-37.205-83.1-83.1 0-45.895 37.204-83.1 83.1-83.1"/>
        <path fill="#C9302C" d="M451.8 483.3c1.8 1.8 2.7 4 2.7 6.4 0 2.6-.9 4.8-2.7 6.6L439 509.2c-1.8 1.8-4 2.7-6.6 2.7-2.5 0-4.6-.9-6.4-2.7l-25.8-25.8-25.8 25.8c-1.8 1.8-3.9 2.7-6.4 2.7-2.6 0-4.8-.9-6.6-2.7l-12.8-12.9c-1.8-1.8-2.7-4-2.7-6.6 0-2.5.9-4.6 2.7-6.4l25.8-25.8-25.8-25.8c-1.8-1.8-2.7-3.9-2.7-6.4 0-2.6.9-4.8 2.7-6.6l12.8-12.8c1.8-1.8 4-2.7 6.6-2.7 2.5 0 4.6.9 6.4 2.7l25.8 25.8 25.8-25.8c1.8-1.8 3.9-2.7 6.4-2.7 2.6 0 4.8.9 6.6 2.7l12.8 12.8c1.8 1.8 2.7 4 2.7 6.6 0 2.5-.9 4.6-2.7 6.4l-25.9 25.7 25.9 25.9zm43.2-80.9c-9.8-16.8-23.1-30.1-39.9-39.9-16.8-9.8-35.1-14.7-55-14.7s-38.2 4.9-55 14.7c-16.8 9.8-30.1 23.1-39.9 39.9-9.8 16.8-14.7 35.1-14.7 55s4.9 38.2 14.7 55c9.8 16.8 23.1 30.1 39.9 39.9 16.8 9.8 35.1 14.7 55 14.7s38.2-4.9 55-14.7c16.8-9.8 30.1-23.1 39.9-39.9 9.8-16.8 14.7-35.1 14.7-55s-4.9-38.2-14.7-55z"/>
    </g>
</svg>
